<?xml version="1.0" encoding="utf-8"?>
<!-- Generator: Adobe Illustrator 26.0.3, SVG Export Plug-In . SVG Version: 6.00 Build 0)  -->
<svg version="1.1" id="Layer_1" xmlns="http://www.w3.org/2000/svg" xmlns:xlink="http://www.w3.org/1999/xlink" x="0px" y="0px"
	 viewBox="0 0 850 1200" style="enable-background:new 0 0 850 1200;" xml:space="preserve">
<style type="text/css">
	.st0{fill:#FFFFFF;}
</style>
<g>
	<path class="st0" d="M415.82,1192.1c-8.95-8.67-19.57-16.16-26.59-26.18C319.03,1065.8,248.3,966.02,180,864.6
		C123.51,780.73,74.22,692.63,40.29,596.8C18.97,536.59,5.71,474.89,6.8,410.53C9.83,230.64,135.29,67.12,308.72,18.86
		c25.56-7.11,52.29-10.02,78.47-14.92c2.6-0.49,5.14-1.29,7.71-1.94c20.14,0,40.29,0,60.43,0c22.78,3.91,45.85,6.63,68.31,11.92
		c165.76,39.09,292.95,180.6,315.84,349.19c11.97,88.17-5.63,171.66-36.8,253.26c-37.22,97.45-89.89,186.73-148.27,272.56
		c-65.51,96.31-132.92,191.32-199.95,286.58c-4.81,6.84-13.28,11.12-20.05,16.59C428.22,1192.1,422.02,1192.1,415.82,1192.1z
		 M425.23,1094.21c1.62-1.9,2.94-3.21,3.99-4.7c58.74-84.11,118.49-167.53,175.87-252.55c54.85-81.26,103.83-166.02,137.45-258.69
		c23.76-65.49,37.72-132.54,28.38-202.66C745.99,188.49,580.02,56.47,391.46,73.58C250.8,86.33,129,187.77,90.16,323.46
		c-22.84,79.79-14.75,157.77,10.74,235.14c27.32,82.9,67.1,159.98,115.09,232.31c66.97,100.93,137.05,199.81,205.82,299.55
		C422.63,1091.63,423.75,1092.6,425.23,1094.21z"/>
	<path class="st0" d="M634.19,420.94c-0.22,115.17-94.41,208.86-209.75,208.64c-115.15-0.22-208.84-94.42-208.63-209.76
		c0.21-115.15,94.4-208.82,209.75-208.61C540.75,211.42,634.41,305.58,634.19,420.94z M564.45,420.25
		c-0.05-76.74-63.03-139.47-139.87-139.32c-76.18,0.15-138.88,62.82-139.04,138.99c-0.16,76.8,62.62,139.87,139.29,139.92
		C501.61,559.9,564.51,497.01,564.45,420.25z"/>
</g>
</svg>
